HIERARCHY
ROOT root
{
	OFFSET 0.000000 0.000000 0.000000
	CHANNELS 6 Xposition Yposition Zposition Zrotation Yrotation Xrotation
	JOINT lhip
	{
		OFFSET 0.058581 -0.082280 -0.017664
		CHANNELS 3 Zrotation Yrotation Xrotation
		JOINT lknee
		{
			OFFSET 0.043451 -0.386469 0.008037
			CHANNELS 3 Zrotation Yrotation Xrotation
			JOINT lankle
			{
				OFFSET -0.014790 -0.426874 -0.037428
				CHANNELS 3 Zrotation Yrotation Xrotation
				JOINT ltoe
				{
					OFFSET 0.041054 -0.060286 0.122042
					CHANNELS 3 Zrotation Yrotation Xrotation
					End Site
					{
						OFFSET 0.000000 0.000000 0.000000
					}
				}
			}
		}
	}
	JOINT rhip
	{
		OFFSET -0.060310 -0.090513 -0.013543
		CHANNELS 3 Zrotation Yrotation Xrotation
		JOINT rknee
		{
			OFFSET -0.043257 -0.383688 -0.004843
			CHANNELS 3 Zrotation Yrotation Xrotation
			JOINT rankle
			{
				OFFSET 0.019056 -0.420046 -0.034562
				CHANNELS 3 Zrotation Yrotation Xrotation
				JOINT rtoe
				{
					OFFSET -0.034840 -0.062106 0.130323
					CHANNELS 3 Zrotation Yrotation Xrotation
					End Site
					{
						OFFSET 0.000000 0.000000 0.000000
					}
				}
			}
		}
	}
	JOINT lowerback
	{
		OFFSET 0.004439 0.124404 -0.038385
		CHANNELS 3 Zrotation Yrotation Xrotation
		JOINT upperback
		{
			OFFSET 0.004488 0.137956 0.026820
			CHANNELS 3 Zrotation Yrotation Xrotation
			JOINT chest
			{
				OFFSET -0.002265 0.056032 0.002855
				CHANNELS 3 Zrotation Yrotation Xrotation
				JOINT lowerneck
				{
					OFFSET -0.013390 0.211636 -0.033468
					CHANNELS 3 Zrotation Yrotation Xrotation
					JOINT upperneck
					{
						OFFSET 0.010113 0.088937 0.050410
						CHANNELS 3 Zrotation Yrotation Xrotation
						End Site
						{
							OFFSET 0.000000 0.000000 0.000000
						}
					}
				}
				JOINT lclavicle
				{
					OFFSET 0.071702 0.114000 -0.018898
					CHANNELS 3 Zrotation Yrotation Xrotation
					JOINT lshoulder
					{
						OFFSET 0.122921 0.045205 -0.019046
						CHANNELS 3 Zrotation Yrotation Xrotation
						JOINT lelbow
						{
							OFFSET 0.255332 -0.015649 -0.022946
							CHANNELS 3 Zrotation Yrotation Xrotation
							JOINT lwrist
							{
								OFFSET 0.265709 0.012698 -0.007375
								CHANNELS 3 Zrotation Yrotation Xrotation
								End Site
								{
									OFFSET 0.000000 0.000000 0.000000
								}
							}
						}
					}
				}
				JOINT rclavicle
				{
					OFFSET -0.082954 0.112472 -0.023707
					CHANNELS 3 Zrotation Yrotation Xrotation
					JOINT rshoulder
					{
						OFFSET -0.113228 0.046853 -0.008472
						CHANNELS 3 Zrotation Yrotation Xrotation
						JOINT relbow
						{
							OFFSET -0.260127 -0.014369 -0.031269
							CHANNELS 3 Zrotation Yrotation Xrotation
							JOINT rwrist
							{
								OFFSET -0.269108 0.006794 -0.006027
								CHANNELS 3 Zrotation Yrotation Xrotation
								End Site
								{
									OFFSET 0.000000 0.000000 0.000000
								}
							}
						}
					}
				}
			}
		}
	}
}
MOTION
Frames: 5
Frame Time: 0.033333
0.502592 0.143386 1.005492 71.557338 4.134258 115.978866 4.900405 9.253932 -20.204293 5.916008 11.569286 -8.962448 -5.782525 12.948290 3.330890 0.000000 -0.000000 0.000000 0.321595 6.429536 -32.569205 -2.203063 5.400615 3.854612 5.646063 -3.178913 0.744540 0.000000 -0.000000 0.000000 6.773797 -8.600971 31.510519 4.348066 -4.225476 -12.492683 5.211143 -1.979736 8.933677 -4.177766 3.114740 7.951451 3.987545 1.977158 -43.548989 22.433339 -20.469938 -18.590318 -73.489436 -29.950567 26.114891 17.513076 -31.400181 19.830485 9.464987 -9.627767 -9.595125 -26.114176 22.785173 -17.396534 69.128115 56.352901 30.392526 0.737060 24.018259 30.776118 -11.023997 3.840434 -16.670436 
0.502206 0.143434 1.005299 71.736984 4.141510 115.927341 4.973231 9.239879 -20.146556 5.882509 11.446975 -9.073745 -5.796337 12.940843 3.439226 0.000000 -0.000000 0.000000 0.413183 6.380413 -32.507082 -2.266313 5.364778 3.844377 5.679769 -3.247237 0.714620 0.000000 -0.000000 0.000000 6.569660 -8.436732 31.247525 4.223266 -4.124296 -12.296949 5.253750 -1.738954 8.846929 -4.249300 3.323216 8.115959 3.950304 1.880412 -43.356357 22.665587 -20.755479 -18.720122 -73.719045 -29.996271 26.244210 17.194271 -31.228456 20.241517 9.527877 -9.606447 -9.541450 -26.433080 23.102599 -17.477853 69.157892 56.331389 30.279894 0.774194 23.797060 30.631266 -11.202915 3.787860 -16.500286 
0.502253 0.143673 1.005125 71.940702 4.146602 115.846744 5.020555 9.265233 -20.013922 5.818228 11.388758 -9.237884 -5.811781 12.828233 3.511028 0.000000 -0.000000 0.000000 0.484812 6.274258 -32.310510 -2.307752 5.225853 3.696346 5.778371 -3.228895 0.763486 0.000000 -0.000000 0.000000 6.292852 -8.163192 30.929811 4.252050 -4.032960 -12.239345 5.327879 -1.623322 8.758064 -4.342119 3.605084 8.226228 3.877348 1.644576 -42.792304 22.676351 -20.877814 -18.631724 -74.173148 -30.190242 26.337030 16.811779 -31.008342 20.768573 9.154343 -9.636142 -9.567494 -25.499359 23.449629 -17.159874 68.944112 56.399489 29.855669 1.108509 23.324189 31.844651 -10.153228 3.980832 -16.258283 
0.502431 0.143618 1.005409 71.938675 4.082315 115.732856 5.017928 9.285541 -19.814698 5.774003 11.347939 -9.310786 -5.920298 12.765885 3.693058 0.000000 -0.000000 0.000000 0.526693 6.216198 -32.082699 -2.394648 5.261217 3.518543 5.827374 -3.293166 0.878666 0.000000 -0.000000 0.000000 6.071782 -7.996483 30.653141 3.845085 -3.815215 -12.707556 5.032497 -1.510878 8.996153 -4.578472 4.211128 8.479095 3.226468 1.513060 -41.397330 23.056525 -20.498313 -18.816570 -75.204530 -30.295371 27.170006 16.437090 -30.433625 21.134030 8.810741 -9.762679 -9.678582 -25.204803 23.533694 -16.875004 70.125096 56.391552 30.810770 1.197425 22.664156 31.583814 -9.885214 3.855086 -16.311430 
0.502347 0.143783 1.006049 71.636777 3.988739 115.582408 4.998865 9.331228 -19.628258 5.729561 11.419827 -9.185468 -5.921432 12.644780 3.827796 0.000000 -0.000000 0.000000 0.542676 6.144484 -31.903239 -2.444528 5.307335 3.377313 5.944359 -3.109007 1.037877 0.000000 -0.000000 0.000000 5.808042 -7.647468 30.005223 3.167155 -3.634624 -12.752764 4.468254 -1.346333 8.934288 -5.237987 4.997911 9.649557 2.673480 1.164372 -40.012336 23.103409 -20.358824 -18.721906 -75.638195 -30.462255 27.637815 16.325175 -29.711849 21.055968 7.439087 -10.300701 -9.779555 -24.650321 23.855879 -16.154304 71.495669 56.088949 31.582694 1.074590 22.162070 31.020065 -9.574416 3.719886 -16.247324 
